/vscmnt/brussel_pixiu_data/_data_brussel/112/vsc11236/PredSimResults/SUBJ06mtu3D/worker4.mot
version=1
nRows=6
nColumns=50
inDegrees=yes
endheader
                time	         pelvis_tilt	         pelvis_list	     pelvis_rotation	           pelvis_tx	           pelvis_ty	           pelvis_tz	       hip_flexion_r	     hip_adduction_r	      hip_rotation_r	        knee_angle_r	       ankle_angle_r	         mtp_angle_r	       hip_flexion_l	     hip_adduction_l	      hip_rotation_l	        knee_angle_l	       ankle_angle_l	         mtp_angle_l	    lumbar_extension	      lumbar_bending	     lumbar_rotation	 ercspn_r/activation	 intobl_r/activation	 extobl_r/activation	    abd_r/activation	    add_r/activation	hamstrings_r/activation	bifemsh_r/activation	glut_max_r/activation	iliopsoas_r/activation	rect_fem_r/activation	  vasti_r/activation	gastroc_r/activation	 soleus_r/activation	tib_ant_r/activation	 ercspn_l/activation	 intobl_l/activation	 extobl_l/activation	    abd_l/activation	    add_l/activation	hamstrings_l/activation	bifemsh_l/activation	glut_max_l/activation	iliopsoas_l/activation	rect_fem_l/activation	  vasti_l/activation	gastroc_l/activation	 soleus_l/activation	tib_ant_l/activation	
          1.25737105	         -6.19410081	         -1.18369868	          5.96234965	          1.40825557	          0.93144528	         -0.01151412	         30.68759548	         -0.65255973	         -4.18311560	         -4.69856239	          2.27514675	          0.23142956	        -10.65625165	         -0.55090805	          0.26986486	         -9.96991760	          8.24761773	         32.83437891	         -6.48296124	         -0.87606802	          0.78015557	          0.15529387	          0.16848108	          0.01000012	          0.01000009	          0.14872319	          0.15991029	          0.25392320	          0.02613957	          0.16720245	          0.01000026	          0.01000006	          0.02589038	          0.01000003	          0.39975457	          0.09681007	          0.01000004	          0.01000008	          0.05541812	          0.01000082	          0.01584844	          0.13153521	          0.04581808	          0.39569633	          0.02132470	          0.01000038	          0.38153927	          0.32202276	          0.01918330	
          1.26994476	         -6.24350156	         -1.11899464	          6.00866212	          1.42543890	          0.92940506	         -0.01071822	         30.83695579	         -0.56010024	         -4.07394464	         -6.55902385	          1.77586404	          0.21226577	        -11.18426586	         -0.62418899	         -0.13059795	        -10.79087692	          7.35988750	         34.65263103	         -6.16734174	         -0.64507843	          0.43983794	          0.13452588	          0.13929143	          0.01000009	          0.01000002	          0.16712364	          0.14611349	          0.20993015	          0.07859616	          0.13823390	          0.01000036	          0.01000006	          0.02140500	          0.01463042	          0.40678557	          0.11726330	          0.01000004	          0.01000008	          0.04581670	          0.05243991	          0.01408336	          0.10874623	          0.03788013	          0.41200985	          0.01763053	          0.01893568	          0.35720348	          0.30517841	          0.01585972	
          1.28251847	         -6.27900201	         -1.06586035	          6.01679063	          1.44293300	          0.92762699	         -0.00982320	         30.80210195	         -0.48032189	         -3.92936788	         -8.30957464	          1.35402307	          0.19729941	        -11.54369623	         -0.71661569	         -0.55268104	        -11.94980576	          6.32421202	         36.53165903	         -5.84012999	         -0.39478048	          0.10017832	          0.13128046	          0.11515869	          0.01000014	          0.05928498	          0.15092736	          0.13358900	          0.17355936	          0.10229654	          0.11428429	          0.01000009	          0.01000003	          0.01769650	          0.01209565	          0.51792049	          0.10125135	          0.01000005	          0.01000013	          0.03787877	          0.04335486	          0.02279634	          0.08990553	          0.03131727	          0.43093285	          0.01457645	          0.02140514	          0.32784243	          0.28225063	          0.01311195	
          1.29509218	         -6.30241588	         -1.00820241	          5.98573641	          1.46047446	          0.92627261	         -0.00881053	         30.65336494	         -0.39360939	         -3.82923869	         -9.84561970	          0.75990503	          0.17300853	        -11.63687663	         -0.81367199	         -0.99268173	        -13.58322822	          5.11390504	         38.44522775	         -5.53460621	         -0.14551323	         -0.22971256	          0.14787191	          0.09520698	          0.01000009	          0.11813252	          0.21715158	          0.11967499	          0.14348957	          0.14535402	          0.09448404	          0.01000007	          0.01000002	          0.01463052	          0.01000004	          0.57266744	          0.13109200	          0.01000004	          0.01000008	          0.03131611	          0.08726831	          0.02959740	          0.07432906	          0.02589143	          0.44094604	          0.01206551	          0.01769665	          0.28127364	          0.25648721	          0.01084026	
          1.30766589	         -6.31201955	         -0.94894002	          5.92020461	          1.47787811	          0.92546092	         -0.00769970	         30.46027195	         -0.29607878	         -3.75650033	        -11.35094388	          0.36810682	          0.13519362	        -11.37603937	         -0.92252512	         -1.45527452	        -15.82215624	          3.71866049	         40.30181558	         -5.26778889	          0.10707465	         -0.54557259	          0.15829314	          0.07871198	          0.01000008	          0.17348842	          0.25798031	          0.10685327	          0.11862945	          0.20194169	          0.07811428	          0.01000011	          0.01000028	          0.01209574	          0.01000019	          0.58257401	          0.17052201	          0.01000004	          0.01000008	          0.02589046	          0.13860560	          0.02580435	          0.06145132	          0.02140564	          0.43105719	          0.01000143	          0.01463064	          0.23254178	          0.21585548	          0.01000001	
          1.32023960	         -6.30743808	         -0.89509147	          5.82230745	          1.49496012	          0.92531733	         -0.00651518	         30.27169167	         -0.18531037	         -3.69637834	        -12.92603974	          0.37622899	          0.10057800	        -10.69955513	         -1.05635102	         -1.94973527	        -18.74204854	          2.14359231	         41.85864710	         -5.05198594	          0.37111553	         -0.84305238	          0.16317746	          0.06507480	          0.01000007	          0.20418639	          0.27720848	          0.09732061	          0.09807645	          0.22024536	          0.06458064	          0.01000010	          0.04677881	          0.01000015	          0.01000004	          0.57498279	          0.20120886	          0.01000005	          0.01000008	          0.02140483	          0.20925391	          0.02942925	          0.05080487	          0.01769702	          0.39380704	          0.01000028	          0.01209582	          0.19225291	          0.17845761	          0.01000004	
